<mxfile host="65bd71144e">
    <diagram id="hLNnh97RMYeBcfv4gIWH" name="Page-1">
        <mxGraphModel dx="175" dy="130" grid="1" gridSize="10" guides="1" tooltips="1" connect="1" arrows="1" fold="1" page="1" pageScale="1" pageWidth="1200" pageHeight="1920" math="0" shadow="0">
            <root>
                <mxCell id="0"/>
                <mxCell id="1" parent="0"/>
                <mxCell id="85" value="" style="group" vertex="1" connectable="0" parent="1">
                    <mxGeometry x="40" y="120" width="220" height="130" as="geometry"/>
                </mxCell>
                <mxCell id="8" value="Real-time transport protocol" style="rounded=1;whiteSpace=wrap;html=1;fillColor=none;strokeColor=#517ed6;fontColor=#FFFFFF;" vertex="1" parent="85">
                    <mxGeometry y="100" width="220" height="30" as="geometry"/>
                </mxCell>
                <mxCell id="41" style="edgeStyle=none;html=1;exitX=1;exitY=0.25;exitDx=0;exitDy=0;strokeColor=#FFFFFF;strokeWidth=1;startArrow=openThin;startFill=0;endArrow=openThin;endFill=0;entryX=0.056;entryY=0.143;entryDx=0;entryDy=0;entryPerimeter=0;endSize=1;startSize=1;" edge="1" parent="85" source="8" target="37">
                    <mxGeometry relative="1" as="geometry">
                        <mxPoint x="210" y="108" as="targetPoint"/>
                        <Array as="points">
                            <mxPoint x="240" y="108"/>
                            <mxPoint x="240"/>
                        </Array>
                    </mxGeometry>
                </mxCell>
                <mxCell id="43" style="edgeStyle=none;html=1;exitX=1;exitY=0.5;exitDx=0;exitDy=0;strokeColor=#FFFFFF;strokeWidth=1;startArrow=openThin;startFill=0;endArrow=openThin;endFill=0;startSize=1;endSize=1;entryX=0;entryY=0.5;entryDx=0;entryDy=0;" edge="1" parent="85" source="8" target="10">
                    <mxGeometry relative="1" as="geometry">
                        <Array as="points">
                            <mxPoint x="250" y="115"/>
                            <mxPoint x="250" y="60"/>
                        </Array>
                    </mxGeometry>
                </mxCell>
                <mxCell id="45" style="edgeStyle=none;html=1;exitX=1;exitY=0.75;exitDx=0;exitDy=0;entryX=0.004;entryY=0.825;entryDx=0;entryDy=0;strokeColor=#FFFFFF;strokeWidth=1;startArrow=openThin;startFill=0;endArrow=openThin;endFill=0;startSize=1;endSize=1;entryPerimeter=0;" edge="1" parent="85" source="8" target="11">
                    <mxGeometry relative="1" as="geometry"/>
                </mxCell>
                <mxCell id="86" value="Haptics" style="rounded=1;whiteSpace=wrap;html=1;fillColor=none;strokeColor=#517ed6;fontColor=#FFFFFF;" vertex="1" parent="85">
                    <mxGeometry x="160" y="-20" width="60" height="40" as="geometry"/>
                </mxCell>
                <mxCell id="87" value="" style="group" vertex="1" connectable="0" parent="85">
                    <mxGeometry x="90" y="20" width="4.159999999999968" height="40" as="geometry"/>
                </mxCell>
                <mxCell id="88" style="edgeStyle=none;html=1;exitX=0.086;exitY=1.048;exitDx=0;exitDy=0;entryX=0.136;entryY=0;entryDx=0;entryDy=0;entryPerimeter=0;endArrow=none;endFill=0;fillColor=#60a917;strokeColor=#FFFFFF;exitPerimeter=0;startArrow=openAsync;startFill=0;endSize=4;startSize=4;strokeWidth=0.5;dashed=1;" edge="1" parent="87">
                    <mxGeometry relative="1" as="geometry">
                        <mxPoint x="4.159999999999968" y="1.919999999999959" as="sourcePoint"/>
                        <mxPoint x="3.9599999999999795" y="40" as="targetPoint"/>
                    </mxGeometry>
                </mxCell>
                <mxCell id="89" style="edgeStyle=none;html=1;exitX=0.192;exitY=-0.05;exitDx=0;exitDy=0;endArrow=none;endFill=0;fillColor=#60a917;strokeColor=#FFFFFF;exitPerimeter=0;startArrow=openAsync;startFill=0;endSize=4;startSize=4;strokeWidth=0.5;dashed=1;" edge="1" parent="87">
                    <mxGeometry relative="1" as="geometry">
                        <mxPoint x="0.12000000000000455" y="38.5" as="sourcePoint"/>
                        <mxPoint as="targetPoint"/>
                    </mxGeometry>
                </mxCell>
                <mxCell id="90" value="" style="group" vertex="1" connectable="0" parent="85">
                    <mxGeometry x="140" y="20" width="4.159999999999968" height="40" as="geometry"/>
                </mxCell>
                <mxCell id="91" style="edgeStyle=none;html=1;exitX=0.086;exitY=1.048;exitDx=0;exitDy=0;entryX=0.136;entryY=0;entryDx=0;entryDy=0;entryPerimeter=0;endArrow=none;endFill=0;fillColor=#60a917;strokeColor=#FFFFFF;exitPerimeter=0;startArrow=openAsync;startFill=0;endSize=4;startSize=4;strokeWidth=0.5;dashed=1;" edge="1" parent="90">
                    <mxGeometry relative="1" as="geometry">
                        <mxPoint x="4.159999999999968" y="1.919999999999959" as="sourcePoint"/>
                        <mxPoint x="3.9599999999999795" y="40" as="targetPoint"/>
                    </mxGeometry>
                </mxCell>
                <mxCell id="92" style="edgeStyle=none;html=1;exitX=0.192;exitY=-0.05;exitDx=0;exitDy=0;endArrow=none;endFill=0;fillColor=#60a917;strokeColor=#FFFFFF;exitPerimeter=0;startArrow=openAsync;startFill=0;endSize=4;startSize=4;strokeWidth=0.5;dashed=1;" edge="1" parent="90">
                    <mxGeometry relative="1" as="geometry">
                        <mxPoint x="0.12000000000000455" y="38.5" as="sourcePoint"/>
                        <mxPoint as="targetPoint"/>
                    </mxGeometry>
                </mxCell>
                <mxCell id="93" value="" style="group" vertex="1" connectable="0" parent="85">
                    <mxGeometry x="187.92" y="20" width="4.159999999999968" height="40" as="geometry"/>
                </mxCell>
                <mxCell id="94" style="edgeStyle=none;html=1;exitX=0.086;exitY=1.048;exitDx=0;exitDy=0;entryX=0.136;entryY=0;entryDx=0;entryDy=0;entryPerimeter=0;endArrow=none;endFill=0;fillColor=#60a917;strokeColor=#FFFFFF;exitPerimeter=0;startArrow=openAsync;startFill=0;endSize=4;startSize=4;strokeWidth=0.5;dashed=1;" edge="1" parent="93">
                    <mxGeometry relative="1" as="geometry">
                        <mxPoint x="4.159999999999968" y="1.919999999999959" as="sourcePoint"/>
                        <mxPoint x="3.9599999999999795" y="40" as="targetPoint"/>
                    </mxGeometry>
                </mxCell>
                <mxCell id="95" style="edgeStyle=none;html=1;exitX=0.192;exitY=-0.05;exitDx=0;exitDy=0;endArrow=none;endFill=0;fillColor=#60a917;strokeColor=#FFFFFF;exitPerimeter=0;startArrow=openAsync;startFill=0;endSize=4;startSize=4;strokeWidth=0.5;dashed=1;" edge="1" parent="93">
                    <mxGeometry relative="1" as="geometry">
                        <mxPoint x="0.12000000000000455" y="38.5" as="sourcePoint"/>
                        <mxPoint as="targetPoint"/>
                    </mxGeometry>
                </mxCell>
                <mxCell id="97" value="" style="group" vertex="1" connectable="0" parent="85">
                    <mxGeometry x="140" y="90" width="3.1499999999999986" height="10" as="geometry"/>
                </mxCell>
                <mxCell id="98" style="edgeStyle=none;html=1;entryX=0.665;entryY=-0.046;entryDx=0;entryDy=0;entryPerimeter=0;endArrow=none;endFill=0;fillColor=#60a917;strokeColor=#FFFFFF;exitX=0.219;exitY=1;exitDx=0;exitDy=0;exitPerimeter=0;startArrow=none;startFill=0;endSize=4;startSize=4;strokeWidth=0.5;dashed=1;" edge="1" parent="97">
                    <mxGeometry relative="1" as="geometry">
                        <mxPoint x="3.1400000000000077" as="sourcePoint"/>
                        <mxPoint x="3.1499999999999986" y="9.655000000000001" as="targetPoint"/>
                    </mxGeometry>
                </mxCell>
                <mxCell id="99" style="edgeStyle=none;html=1;exitX=0.192;exitY=-0.05;exitDx=0;exitDy=0;endArrow=none;endFill=0;fillColor=#60a917;strokeColor=#FFFFFF;exitPerimeter=0;startArrow=none;startFill=0;endSize=4;startSize=4;strokeWidth=0.5;dashed=1;" edge="1" parent="97">
                    <mxGeometry relative="1" as="geometry">
                        <mxPoint x="0.12000000000000455" y="10" as="sourcePoint"/>
                        <mxPoint y="0.375" as="targetPoint"/>
                    </mxGeometry>
                </mxCell>
                <mxCell id="96" value="" style="group" vertex="1" connectable="0" parent="85">
                    <mxGeometry x="90" y="90" width="3.1500000000000057" height="10" as="geometry"/>
                </mxCell>
                <mxCell id="26" style="edgeStyle=none;html=1;entryX=0.665;entryY=-0.046;entryDx=0;entryDy=0;entryPerimeter=0;endArrow=none;endFill=0;fillColor=#60a917;strokeColor=#FFFFFF;exitX=0.219;exitY=1;exitDx=0;exitDy=0;exitPerimeter=0;startArrow=none;startFill=0;endSize=4;startSize=4;strokeWidth=0.5;dashed=1;" edge="1" parent="96">
                    <mxGeometry relative="1" as="geometry">
                        <mxPoint x="3.140000000000015" as="sourcePoint"/>
                        <mxPoint x="3.1500000000000057" y="9.655000000000001" as="targetPoint"/>
                    </mxGeometry>
                </mxCell>
                <mxCell id="27" style="edgeStyle=none;html=1;exitX=0.192;exitY=-0.05;exitDx=0;exitDy=0;endArrow=none;endFill=0;fillColor=#60a917;strokeColor=#FFFFFF;exitPerimeter=0;startArrow=none;startFill=0;endSize=4;startSize=4;strokeWidth=0.5;dashed=1;" edge="1" parent="96">
                    <mxGeometry relative="1" as="geometry">
                        <mxPoint x="0.12000000000000455" y="10" as="sourcePoint"/>
                        <mxPoint y="0.375" as="targetPoint"/>
                    </mxGeometry>
                </mxCell>
                <mxCell id="64" style="edgeStyle=none;html=1;exitX=1;exitY=0.5;exitDx=0;exitDy=0;entryX=-0.007;entryY=0.596;entryDx=0;entryDy=0;entryPerimeter=0;strokeColor=#FFFFFF;strokeWidth=1;startArrow=openThin;startFill=0;endArrow=openThin;endFill=0;startSize=1;endSize=1;" edge="1" parent="1" source="37" target="56">
                    <mxGeometry relative="1" as="geometry"/>
                </mxCell>
                <mxCell id="38" value="" style="rounded=1;whiteSpace=wrap;html=1;fillColor=none;strokeColor=#FF99FF;" vertex="1" parent="1">
                    <mxGeometry x="30" y="90" width="240" height="210" as="geometry"/>
                </mxCell>
                <mxCell id="2" value="Sensors" style="rounded=1;whiteSpace=wrap;html=1;fillColor=none;strokeColor=#517ed6;fontColor=#FFFFFF;" vertex="1" parent="1">
                    <mxGeometry x="40" y="100" width="60" height="40" as="geometry"/>
                </mxCell>
                <mxCell id="6" value="Display" style="rounded=1;whiteSpace=wrap;html=1;fillColor=none;strokeColor=#517ed6;fontColor=#FFFFFF;" vertex="1" parent="1">
                    <mxGeometry x="100" y="100" width="60" height="40" as="geometry"/>
                </mxCell>
                <mxCell id="7" value="Encoder / Decoder" style="rounded=1;whiteSpace=wrap;html=1;fillColor=none;strokeColor=#517ed6;fontColor=#FFFFFF;" vertex="1" parent="1">
                    <mxGeometry x="40" y="180" width="220" height="30" as="geometry"/>
                </mxCell>
                <mxCell id="9" value="Audio" style="rounded=1;whiteSpace=wrap;html=1;fillColor=none;strokeColor=#517ed6;fontColor=#FFFFFF;" vertex="1" parent="1">
                    <mxGeometry x="160" y="100" width="40" height="40" as="geometry"/>
                </mxCell>
                <mxCell id="28" value="" style="group" vertex="1" connectable="0" parent="1">
                    <mxGeometry x="51" y="140" width="4.159999999999968" height="40" as="geometry"/>
                </mxCell>
                <mxCell id="14" style="edgeStyle=none;html=1;exitX=0.086;exitY=1.048;exitDx=0;exitDy=0;entryX=0.136;entryY=0;entryDx=0;entryDy=0;entryPerimeter=0;endArrow=none;endFill=0;fillColor=#60a917;strokeColor=#FFFFFF;exitPerimeter=0;startArrow=openAsync;startFill=0;endSize=4;startSize=4;strokeWidth=0.5;dashed=1;" edge="1" parent="28">
                    <mxGeometry relative="1" as="geometry">
                        <mxPoint x="4.159999999999968" y="1.919999999999959" as="sourcePoint"/>
                        <mxPoint x="3.9599999999999795" y="40" as="targetPoint"/>
                    </mxGeometry>
                </mxCell>
                <mxCell id="16" style="edgeStyle=none;html=1;exitX=0.192;exitY=-0.05;exitDx=0;exitDy=0;endArrow=none;endFill=0;fillColor=#60a917;strokeColor=#FFFFFF;exitPerimeter=0;startArrow=openAsync;startFill=0;endSize=4;startSize=4;strokeWidth=0.5;dashed=1;" edge="1" parent="28">
                    <mxGeometry relative="1" as="geometry">
                        <mxPoint x="0.12000000000000455" y="38.5" as="sourcePoint"/>
                        <mxPoint as="targetPoint"/>
                    </mxGeometry>
                </mxCell>
                <mxCell id="29" value="" style="group" vertex="1" connectable="0" parent="1">
                    <mxGeometry x="50" y="210" width="3.1499999999999986" height="10" as="geometry"/>
                </mxCell>
                <mxCell id="22" style="edgeStyle=none;html=1;entryX=0.665;entryY=-0.046;entryDx=0;entryDy=0;entryPerimeter=0;endArrow=none;endFill=0;fillColor=#60a917;strokeColor=#FFFFFF;exitX=0.219;exitY=1;exitDx=0;exitDy=0;exitPerimeter=0;startArrow=none;startFill=0;endSize=4;startSize=4;strokeWidth=0.5;dashed=1;" edge="1" parent="29">
                    <mxGeometry relative="1" as="geometry">
                        <mxPoint x="3.1400000000000077" as="sourcePoint"/>
                        <mxPoint x="3.1499999999999986" y="9.655000000000001" as="targetPoint"/>
                    </mxGeometry>
                </mxCell>
                <mxCell id="23" style="edgeStyle=none;html=1;exitX=0.192;exitY=-0.05;exitDx=0;exitDy=0;endArrow=none;endFill=0;fillColor=#60a917;strokeColor=#FFFFFF;exitPerimeter=0;startArrow=none;startFill=0;endSize=4;startSize=4;strokeWidth=0.5;dashed=1;" edge="1" parent="29">
                    <mxGeometry relative="1" as="geometry">
                        <mxPoint x="0.12000000000000455" y="10" as="sourcePoint"/>
                        <mxPoint y="0.375" as="targetPoint"/>
                    </mxGeometry>
                </mxCell>
                <mxCell id="65" value="Input / Output" style="text;html=1;strokeColor=none;fillColor=#000000;align=center;verticalAlign=middle;whiteSpace=wrap;rounded=0;fontColor=#FFFFFF;fontSize=14;fontStyle=1" vertex="1" parent="1">
                    <mxGeometry x="90" y="310" width="120" height="30" as="geometry"/>
                </mxCell>
                <mxCell id="75" value="" style="group" vertex="1" connectable="0" parent="1">
                    <mxGeometry x="500" y="100" width="230" height="240" as="geometry"/>
                </mxCell>
                <mxCell id="67" value="Data" style="text;html=1;strokeColor=none;fillColor=#000000;align=center;verticalAlign=middle;whiteSpace=wrap;rounded=0;fontColor=#FFFFFF;fontSize=14;fontStyle=1" vertex="1" parent="75">
                    <mxGeometry x="70" y="210" width="120" height="30" as="geometry"/>
                </mxCell>
                <mxCell id="70" value="" style="group" vertex="1" connectable="0" parent="75">
                    <mxGeometry width="230" height="200" as="geometry"/>
                </mxCell>
                <mxCell id="74" value="" style="group" vertex="1" connectable="0" parent="70">
                    <mxGeometry x="50" width="160" height="160" as="geometry"/>
                </mxCell>
                <mxCell id="4" value="Blob Store" style="rounded=1;whiteSpace=wrap;html=1;fillColor=none;strokeColor=#517ed6;fontColor=#FFFFFF;" vertex="1" parent="74">
                    <mxGeometry x="80" width="80" height="40" as="geometry"/>
                </mxCell>
                <mxCell id="50" value="File storage" style="rounded=1;whiteSpace=wrap;html=1;fillColor=none;strokeColor=#517ed6;fontColor=#FFFFFF;" vertex="1" parent="74">
                    <mxGeometry x="80" y="60" width="80" height="40" as="geometry"/>
                </mxCell>
                <mxCell id="51" value="Relational DB" style="rounded=1;whiteSpace=wrap;html=1;fillColor=none;strokeColor=#517ed6;fontColor=#FFFFFF;" vertex="1" parent="74">
                    <mxGeometry x="80" y="120" width="80" height="40" as="geometry"/>
                </mxCell>
                <mxCell id="56" value="Mapping tool" style="rounded=1;whiteSpace=wrap;html=1;fillColor=none;strokeColor=#517ed6;fontColor=#FFFFFF;" vertex="1" parent="74">
                    <mxGeometry width="60" height="160" as="geometry"/>
                </mxCell>
                <mxCell id="71" value="" style="group" vertex="1" connectable="0" parent="74">
                    <mxGeometry x="60" y="24.899999999999977" width="19.5" height="110.20000000000002" as="geometry"/>
                </mxCell>
                <mxCell id="60" style="edgeStyle=none;html=1;exitX=1.025;exitY=0.155;exitDx=0;exitDy=0;entryX=0;entryY=0.5;entryDx=0;entryDy=0;strokeColor=#FFFFFF;strokeWidth=1;startArrow=openThin;startFill=0;endArrow=openThin;endFill=0;startSize=1;endSize=1;exitPerimeter=0;" edge="1" parent="71">
                    <mxGeometry relative="1" as="geometry">
                        <mxPoint as="sourcePoint"/>
                        <mxPoint x="18.5" y="0.20000000000001705" as="targetPoint"/>
                    </mxGeometry>
                </mxCell>
                <mxCell id="62" style="edgeStyle=none;html=1;exitX=1.025;exitY=0.155;exitDx=0;exitDy=0;entryX=0;entryY=0.5;entryDx=0;entryDy=0;strokeColor=#FFFFFF;strokeWidth=1;startArrow=openThin;startFill=0;endArrow=openThin;endFill=0;startSize=1;endSize=1;exitPerimeter=0;" edge="1" parent="71">
                    <mxGeometry relative="1" as="geometry">
                        <mxPoint y="54.92" as="sourcePoint"/>
                        <mxPoint x="18.5" y="55.12000000000002" as="targetPoint"/>
                    </mxGeometry>
                </mxCell>
                <mxCell id="63" style="edgeStyle=none;html=1;exitX=1.025;exitY=0.155;exitDx=0;exitDy=0;strokeColor=#FFFFFF;strokeWidth=1;startArrow=openThin;startFill=0;endArrow=openThin;endFill=0;startSize=1;endSize=1;exitPerimeter=0;" edge="1" parent="71">
                    <mxGeometry relative="1" as="geometry">
                        <mxPoint y="110.06" as="sourcePoint"/>
                        <mxPoint x="19.5" y="110.20000000000002" as="targetPoint"/>
                    </mxGeometry>
                </mxCell>
                <mxCell id="55" value="" style="rounded=1;whiteSpace=wrap;html=1;fillColor=none;strokeColor=#FF99FF;" vertex="1" parent="70">
                    <mxGeometry x="40" y="-10" width="180" height="210" as="geometry"/>
                </mxCell>
                <mxCell id="83" value="" style="group" vertex="1" connectable="0" parent="1">
                    <mxGeometry x="280" y="90" width="210" height="250" as="geometry"/>
                </mxCell>
                <mxCell id="66" value="Services" style="text;html=1;strokeColor=none;fillColor=#000000;align=center;verticalAlign=middle;whiteSpace=wrap;rounded=0;fontColor=#FFFFFF;fontSize=14;fontStyle=1" vertex="1" parent="83">
                    <mxGeometry x="60" y="220" width="120" height="30" as="geometry"/>
                </mxCell>
                <mxCell id="82" value="" style="group" vertex="1" connectable="0" parent="83">
                    <mxGeometry width="210" height="220" as="geometry"/>
                </mxCell>
                <mxCell id="80" value="" style="group" vertex="1" connectable="0" parent="82">
                    <mxGeometry x="30" width="180" height="220" as="geometry"/>
                </mxCell>
                <mxCell id="37" value="" style="rounded=1;whiteSpace=wrap;html=1;fillColor=none;strokeColor=#FF99FF;" vertex="1" parent="80">
                    <mxGeometry width="180" height="210" as="geometry"/>
                </mxCell>
                <mxCell id="76" value="" style="group" vertex="1" connectable="0" parent="80">
                    <mxGeometry x="10" y="10" width="160" height="150" as="geometry"/>
                </mxCell>
                <mxCell id="3" value="Rendering Service" style="rounded=1;whiteSpace=wrap;html=1;fillColor=none;strokeColor=#517ed6;fontColor=#FFFFFF;" vertex="1" parent="76">
                    <mxGeometry width="160" height="50" as="geometry"/>
                </mxCell>
                <mxCell id="10" value="Audio service" style="rounded=1;whiteSpace=wrap;html=1;fillColor=none;strokeColor=#517ed6;fontColor=#FFFFFF;" vertex="1" parent="76">
                    <mxGeometry y="60" width="160" height="40" as="geometry"/>
                </mxCell>
                <mxCell id="11" value="&amp;nbsp;Telemetry Service" style="rounded=1;whiteSpace=wrap;html=1;fillColor=none;strokeColor=#517ed6;fontColor=#FFFFFF;" vertex="1" parent="76">
                    <mxGeometry y="110" width="160" height="40" as="geometry"/>
                </mxCell>
                <mxCell id="112" value="Frontend Service" style="rounded=1;whiteSpace=wrap;html=1;fillColor=none;strokeColor=#517ed6;fontColor=#FFFFFF;" vertex="1" parent="80">
                    <mxGeometry x="10" y="170" width="160" height="30" as="geometry"/>
                </mxCell>
                <mxCell id="81" value="" style="group" vertex="1" connectable="0" parent="82">
                    <mxGeometry y="30" width="10" height="115" as="geometry"/>
                </mxCell>
                <mxCell id="103" value="" style="group" vertex="1" connectable="0" parent="1">
                    <mxGeometry x="230" y="210" width="3.1499999999999986" height="10" as="geometry"/>
                </mxCell>
                <mxCell id="104" style="edgeStyle=none;html=1;entryX=0.665;entryY=-0.046;entryDx=0;entryDy=0;entryPerimeter=0;endArrow=none;endFill=0;fillColor=#60a917;strokeColor=#FFFFFF;exitX=0.219;exitY=1;exitDx=0;exitDy=0;exitPerimeter=0;startArrow=none;startFill=0;endSize=4;startSize=4;strokeWidth=0.5;dashed=1;" edge="1" parent="103">
                    <mxGeometry relative="1" as="geometry">
                        <mxPoint x="3.1400000000000077" as="sourcePoint"/>
                        <mxPoint x="3.1499999999999986" y="9.655000000000001" as="targetPoint"/>
                    </mxGeometry>
                </mxCell>
                <mxCell id="105" style="edgeStyle=none;html=1;exitX=0.192;exitY=-0.05;exitDx=0;exitDy=0;endArrow=none;endFill=0;fillColor=#60a917;strokeColor=#FFFFFF;exitPerimeter=0;startArrow=none;startFill=0;endSize=4;startSize=4;strokeWidth=0.5;dashed=1;" edge="1" parent="103">
                    <mxGeometry relative="1" as="geometry">
                        <mxPoint x="0.12000000000000455" y="10" as="sourcePoint"/>
                        <mxPoint y="0.375" as="targetPoint"/>
                    </mxGeometry>
                </mxCell>
                <mxCell id="115" style="edgeStyle=none;html=1;exitX=0;exitY=0.5;exitDx=0;exitDy=0;entryX=1.001;entryY=0.763;entryDx=0;entryDy=0;strokeColor=#FFFFFF;strokeWidth=1;fontSize=14;fontColor=#FFFFFF;startArrow=openThin;startFill=0;endArrow=openThin;endFill=0;startSize=1;endSize=1;entryPerimeter=0;" edge="1" parent="1" source="112" target="38">
                    <mxGeometry relative="1" as="geometry">
                        <Array as="points">
                            <mxPoint x="290" y="275"/>
                            <mxPoint x="290" y="250"/>
                        </Array>
                    </mxGeometry>
                </mxCell>
            </root>
        </mxGraphModel>
    </diagram>
</mxfile>